<svg xmlns="http://www.w3.org/2000/svg" width="79" height="78" viewBox="0 0 79 78"><defs><style>.a{fill:red;font-size:55px;font-family:Consolas-Bold, Consolas;font-weight:700;}.b{fill:#161313;font-size:32.082px;baseline-shift:-18.331500575449663;}.c{fill:#171515;}</style></defs><g transform="translate(-128 -510)"><text class="a" transform="translate(128 561)"><tspan x="0" y="0">H</tspan><tspan class="b" y="0">2</tspan><tspan y="0">E</tspan></text><path class="c" d="M46.155,18.5H32.26a.5.5,0,0,1-.5-.5V15.18a.5.5,0,0,1,.146-.354l4.84-4.84c.894-.894,1.619-1.673,2.155-2.316a12.481,12.481,0,0,0,1.22-1.692,4.576,4.576,0,0,0,.532-1.289,6.017,6.017,0,0,0,.13-1.258,2.766,2.766,0,0,0-.159-.936A1.994,1.994,0,0,0,39.447,1.27a2.772,2.772,0,0,0-1.062-.189,4.405,4.405,0,0,0-2.014.471,7.854,7.854,0,0,0-1.84,1.319.5.5,0,0,1-.739-.056L31.771.214a.5.5,0,0,1,.054-.673,11.443,11.443,0,0,1,3.137-2.072,9.3,9.3,0,0,1,3.814-.787,9.61,9.61,0,0,1,2.875.407,6.339,6.339,0,0,1,2.269,1.235A5.561,5.561,0,0,1,45.4.386a7.144,7.144,0,0,1,.517,2.8,8.169,8.169,0,0,1-.352,2.428,9.372,9.372,0,0,1-1.009,2.176,14.512,14.512,0,0,1-1.6,2.077c-.616.674-1.328,1.394-2.117,2.141l-2.07,1.972h7.382a.5.5,0,0,1,.5.5V18A.5.5,0,0,1,46.155,18.5Zm-13.395-1H45.655V14.975H37.523a.5.5,0,0,1-.345-.862l2.976-2.835c.772-.731,1.467-1.434,2.067-2.09A13.512,13.512,0,0,0,43.71,7.255a8.373,8.373,0,0,0,.9-1.943,7.172,7.172,0,0,0,.306-2.131A6.156,6.156,0,0,0,44.48.776a4.57,4.57,0,0,0-1.214-1.7,5.347,5.347,0,0,0-1.914-1.037,8.617,8.617,0,0,0-2.576-.361,8.306,8.306,0,0,0-3.407.7A10.453,10.453,0,0,0,32.848-.03l1.4,1.807A8.607,8.607,0,0,1,35.919.66,5.4,5.4,0,0,1,38.385.081,3.761,3.761,0,0,1,39.83.346a2.992,2.992,0,0,1,1.736,1.813,3.763,3.763,0,0,1,.217,1.273A7.018,7.018,0,0,1,41.631,4.9a5.558,5.558,0,0,1-.643,1.578A13.457,13.457,0,0,1,39.67,8.31c-.555.666-1.3,1.468-2.216,2.383L32.76,15.387ZM73.954.5H52.819a.5.5,0,0,1-.5-.5V-35.1a.5.5,0,0,1,.5-.5H73.954a.5.5,0,0,1,.5.5v5.586a.5.5,0,0,1-.5.5H60.033v7.728h13.25a.5.5,0,0,1,.5.5v5.452a.5.5,0,0,1-.5.5H60.033v8.749H73.954a.5.5,0,0,1,.5.5V0A.5.5,0,0,1,73.954.5ZM53.319-.5H73.454V-5.086H59.533a.5.5,0,0,1-.5-.5v-9.749a.5.5,0,0,1,.5-.5h13.25v-4.452H59.533a.5.5,0,0,1-.5-.5v-8.728a.5.5,0,0,1,.5-.5H73.454V-34.6H53.319ZM27.688.5H21.082a.5.5,0,0,1-.5-.5V-14.781H9.658V0a.5.5,0,0,1-.5.5H2.551a.5.5,0,0,1-.5-.5V-35.1a.5.5,0,0,1,.5-.5H9.158a.5.5,0,0,1,.5.5v13.6H20.582V-35.1a.5.5,0,0,1,.5-.5h6.606a.5.5,0,0,1,.5.5V0A.5.5,0,0,1,27.688.5Zm-6.106-1h5.606V-34.6H21.582V-21a.5.5,0,0,1-.5.5H9.158a.5.5,0,0,1-.5-.5V-34.6H3.051V-.5H8.658V-15.281a.5.5,0,0,1,.5-.5H21.082a.5.5,0,0,1,.5.5Z" transform="translate(128 561)"/></g></svg>